# xmcd
#
# Track frame offsets:
#  150
#  10308
#  25387
#  38431
#  53945
#  63704
#  75283
#  89464
#  110424
#  122108
#  135773
#  147385
#  158758
#  168224
#  181419
#  196613
#
# Disc length: 2811 seconds
#
# Revision: 0
# Processed by: cddbd v1.4PL0 Copyright (c) Steve Scherf et al.
# Submitted via: AltoMP3_Maker 3.0
#
DISCID=c60af910
DTITLE=TO NEO KYMA - TO NEO KYMA CD2
DYEAR=1900
DGENRE=
TTITLE0=SYNNEFOYLA
TTITLE1=AKRH DEN EXEI O OYRANOS
TTITLE2=MIA FORA MONAXA FTANEI
TTITLE3=A AGIA KYRIAKH
TTITLE4=MIA AGAPH GIA TO KALOKAIRI
TTITLE5=HRTHES EPSES
TTITLE6=H MIKRH NANW
TTITLE7=MHN KOYRASTEIS NA M AGAPAS
TTITLE8=H MARINA
TTITLE9=H KORH TOY GIALOY
TTITLE10=BARKA XWRIS PANIA
TTITLE11=POY PAS AFENTH MERMYGA
TTITLE12=HRTHES AGAPH MOY
TTITLE13=AGORI MOY TWN 16 XRONWN
TTITLE14=AGIE DHMHTRH MOY
TTITLE15=AKOY MIKRO MOY TAIRI
EXTD=
EXTT0=
EXTT1=
EXTT2=
EXTT3=
EXTT4=
EXTT5=
EXTT6=
EXTT7=
EXTT8=
EXTT9=
EXTT10=
EXTT11=
EXTT12=
EXTT13=
EXTT14=
EXTT15=
PLAYORDER=
